<svg xmlns="http://www.w3.org/2000/svg" width="968" height="500" viewBox="0 0 968 500" font-family="'Noto Sans CJK JP','Noto Sans JP','Hiragino Sans','Yu Gothic UI',sans-serif"><defs><marker id="arr" markerWidth="7" markerHeight="7" refX="5" refY="3.5" orient="auto"><path d="M0,0 L7,3.5 L0,7 z" fill="#868e96"/></marker></defs><rect width="968" height="500" fill="#ffffff"/><rect x="20" y="14" width="86" height="26" rx="13" fill="#5b6b7a"/><text x="63" y="32" font-size="13" fill="#ffffff" font-weight="700" text-anchor="middle">サイズ</text><text x="118" y="33" font-size="18" fill="#212529" font-weight="700">3-Split Space のキーキャップサイズ</text><text x="948" y="24" font-size="11.5" fill="#495057" text-anchor="end">v2 の出荷時 / v2.1 でも選択可</text><g transform="translate(34,70)"><rect x="-14" y="-14" width="928.0" height="328" rx="12" fill="#f1f3f5" stroke="#dee2e6" stroke-width="1.5"/><rect x="48.0" y="3.0" width="54.0" height="54.0" rx="7" fill="#ffffff" stroke="#c3c9cf" stroke-width="1.5"/><text x="75.0" y="24.0" font-size="9.5" fill="#495057" text-anchor="middle">Esc</text><text x="75.0" y="44.0" font-size="12.5" fill="#212529" font-weight="700" text-anchor="middle">1U</text><rect x="108.0" y="3.0" width="54.0" height="54.0" rx="7" fill="#ffffff" stroke="#c3c9cf" stroke-width="1.5"/><text x="135.0" y="24.0" font-size="9.5" fill="#495057" text-anchor="middle">1</text><text x="135.0" y="44.0" font-size="12.5" fill="#212529" font-weight="700" text-anchor="middle">1U</text><rect x="168.0" y="3.0" width="54.0" height="54.0" rx="7" fill="#ffffff" stroke="#c3c9cf" stroke-width="1.5"/><text x="195.0" y="24.0" font-size="9.5" fill="#495057" text-anchor="middle">2</text><text x="195.0" y="44.0" font-size="12.5" fill="#212529" font-weight="700" text-anchor="middle">1U</text><rect x="228.0" y="3.0" width="54.0" height="54.0" rx="7" fill="#ffffff" stroke="#c3c9cf" stroke-width="1.5"/><text x="255.0" y="24.0" font-size="9.5" fill="#495057" text-anchor="middle">3</text><text x="255.0" y="44.0" font-size="12.5" fill="#212529" font-weight="700" text-anchor="middle">1U</text><rect x="288.0" y="3.0" width="54.0" height="54.0" rx="7" fill="#ffffff" stroke="#c3c9cf" stroke-width="1.5"/><text x="315.0" y="24.0" font-size="9.5" fill="#495057" text-anchor="middle">4</text><text x="315.0" y="44.0" font-size="12.5" fill="#212529" font-weight="700" text-anchor="middle">1U</text><rect x="348.0" y="3.0" width="54.0" height="54.0" rx="7" fill="#ffffff" stroke="#c3c9cf" stroke-width="1.5"/><text x="375.0" y="24.0" font-size="9.5" fill="#495057" text-anchor="middle">5</text><text x="375.0" y="44.0" font-size="12.5" fill="#212529" font-weight="700" text-anchor="middle">1U</text><rect x="453.0" y="3.0" width="54.0" height="54.0" rx="7" fill="#ffffff" stroke="#c3c9cf" stroke-width="1.5"/><text x="480.0" y="24.0" font-size="9.5" fill="#495057" text-anchor="middle">6</text><text x="480.0" y="44.0" font-size="12.5" fill="#212529" font-weight="700" text-anchor="middle">1U</text><rect x="513.0" y="3.0" width="54.0" height="54.0" rx="7" fill="#ffffff" stroke="#c3c9cf" stroke-width="1.5"/><text x="540.0" y="24.0" font-size="9.5" fill="#495057" text-anchor="middle">7</text><text x="540.0" y="44.0" font-size="12.5" fill="#212529" font-weight="700" text-anchor="middle">1U</text><rect x="573.0" y="3.0" width="54.0" height="54.0" rx="7" fill="#ffffff" stroke="#c3c9cf" stroke-width="1.5"/><text x="600.0" y="24.0" font-size="9.5" fill="#495057" text-anchor="middle">8</text><text x="600.0" y="44.0" font-size="12.5" fill="#212529" font-weight="700" text-anchor="middle">1U</text><rect x="633.0" y="3.0" width="54.0" height="54.0" rx="7" fill="#ffffff" stroke="#c3c9cf" stroke-width="1.5"/><text x="660.0" y="24.0" font-size="9.5" fill="#495057" text-anchor="middle">9</text><text x="660.0" y="44.0" font-size="12.5" fill="#212529" font-weight="700" text-anchor="middle">1U</text><rect x="693.0" y="3.0" width="54.0" height="54.0" rx="7" fill="#ffffff" stroke="#c3c9cf" stroke-width="1.5"/><text x="720.0" y="24.0" font-size="9.5" fill="#495057" text-anchor="middle">0</text><text x="720.0" y="44.0" font-size="12.5" fill="#212529" font-weight="700" text-anchor="middle">1U</text><rect x="753.0" y="3.0" width="114.0" height="54.0" rx="7" fill="#fde0ec" stroke="#c2447e" stroke-width="1.5"/><text x="810.0" y="24.0" font-size="9.5" fill="#495057" text-anchor="middle">Backspace</text><text x="810.0" y="44.0" font-size="12.5" fill="#212529" font-weight="700" text-anchor="middle">2U</text><rect x="12.0" y="63.0" width="84.0" height="54.0" rx="7" fill="#d8f0dc" stroke="#2f8f45" stroke-width="1.5"/><text x="54.0" y="84.0" font-size="9.5" fill="#495057" text-anchor="middle">Tab</text><text x="54.0" y="104.0" font-size="12.5" fill="#212529" font-weight="700" text-anchor="middle">1.5U</text><rect x="108.0" y="63.0" width="54.0" height="54.0" rx="7" fill="#ffffff" stroke="#c3c9cf" stroke-width="1.5"/><text x="135.0" y="84.0" font-size="9.5" fill="#495057" text-anchor="middle">Q</text><text x="135.0" y="104.0" font-size="12.5" fill="#212529" font-weight="700" text-anchor="middle">1U</text><rect x="168.0" y="63.0" width="54.0" height="54.0" rx="7" fill="#ffffff" stroke="#c3c9cf" stroke-width="1.5"/><text x="195.0" y="84.0" font-size="9.5" fill="#495057" text-anchor="middle">W</text><text x="195.0" y="104.0" font-size="12.5" fill="#212529" font-weight="700" text-anchor="middle">1U</text><rect x="228.0" y="63.0" width="54.0" height="54.0" rx="7" fill="#ffffff" stroke="#c3c9cf" stroke-width="1.5"/><text x="255.0" y="84.0" font-size="9.5" fill="#495057" text-anchor="middle">E</text><text x="255.0" y="104.0" font-size="12.5" fill="#212529" font-weight="700" text-anchor="middle">1U</text><rect x="288.0" y="63.0" width="54.0" height="54.0" rx="7" fill="#ffffff" stroke="#c3c9cf" stroke-width="1.5"/><text x="315.0" y="84.0" font-size="9.5" fill="#495057" text-anchor="middle">R</text><text x="315.0" y="104.0" font-size="12.5" fill="#212529" font-weight="700" text-anchor="middle">1U</text><rect x="348.0" y="63.0" width="54.0" height="54.0" rx="7" fill="#ffffff" stroke="#c3c9cf" stroke-width="1.5"/><text x="375.0" y="84.0" font-size="9.5" fill="#495057" text-anchor="middle">T</text><text x="375.0" y="104.0" font-size="12.5" fill="#212529" font-weight="700" text-anchor="middle">1U</text><rect x="453.0" y="63.0" width="54.0" height="54.0" rx="7" fill="#ffffff" stroke="#c3c9cf" stroke-width="1.5"/><text x="480.0" y="84.0" font-size="9.5" fill="#495057" text-anchor="middle">Y</text><text x="480.0" y="104.0" font-size="12.5" fill="#212529" font-weight="700" text-anchor="middle">1U</text><rect x="513.0" y="63.0" width="54.0" height="54.0" rx="7" fill="#ffffff" stroke="#c3c9cf" stroke-width="1.5"/><text x="540.0" y="84.0" font-size="9.5" fill="#495057" text-anchor="middle">U</text><text x="540.0" y="104.0" font-size="12.5" fill="#212529" font-weight="700" text-anchor="middle">1U</text><rect x="573.0" y="63.0" width="54.0" height="54.0" rx="7" fill="#ffffff" stroke="#c3c9cf" stroke-width="1.5"/><text x="600.0" y="84.0" font-size="9.5" fill="#495057" text-anchor="middle">I</text><text x="600.0" y="104.0" font-size="12.5" fill="#212529" font-weight="700" text-anchor="middle">1U</text><rect x="633.0" y="63.0" width="54.0" height="54.0" rx="7" fill="#ffffff" stroke="#c3c9cf" stroke-width="1.5"/><text x="660.0" y="84.0" font-size="9.5" fill="#495057" text-anchor="middle">O</text><text x="660.0" y="104.0" font-size="12.5" fill="#212529" font-weight="700" text-anchor="middle">1U</text><rect x="693.0" y="63.0" width="54.0" height="54.0" rx="7" fill="#ffffff" stroke="#c3c9cf" stroke-width="1.5"/><text x="720.0" y="84.0" font-size="9.5" fill="#495057" text-anchor="middle">P</text><text x="720.0" y="104.0" font-size="12.5" fill="#212529" font-weight="700" text-anchor="middle">1U</text><rect x="753.0" y="63.0" width="54.0" height="54.0" rx="7" fill="#ffffff" stroke="#c3c9cf" stroke-width="1.5"/><text x="780.0" y="84.0" font-size="9.5" fill="#495057" text-anchor="middle">[</text><text x="780.0" y="104.0" font-size="12.5" fill="#212529" font-weight="700" text-anchor="middle">1U</text><rect x="813.0" y="63.0" width="84.0" height="54.0" rx="7" fill="#d8f0dc" stroke="#2f8f45" stroke-width="1.5"/><text x="855.0" y="84.0" font-size="9.5" fill="#495057" text-anchor="middle">\</text><text x="855.0" y="104.0" font-size="12.5" fill="#212529" font-weight="700" text-anchor="middle">1.5U</text><rect x="3.0" y="123.0" width="99.0" height="54.0" rx="7" fill="#fff3cd" stroke="#a07d1c" stroke-width="1.5"/><text x="52.5" y="144.0" font-size="9.5" fill="#495057" text-anchor="middle">Ctrl</text><text x="52.5" y="164.0" font-size="12.5" fill="#212529" font-weight="700" text-anchor="middle">1.75U</text><rect x="108.0" y="123.0" width="54.0" height="54.0" rx="7" fill="#ffffff" stroke="#c3c9cf" stroke-width="1.5"/><text x="135.0" y="144.0" font-size="9.5" fill="#495057" text-anchor="middle">A</text><text x="135.0" y="164.0" font-size="12.5" fill="#212529" font-weight="700" text-anchor="middle">1U</text><rect x="168.0" y="123.0" width="54.0" height="54.0" rx="7" fill="#ffffff" stroke="#c3c9cf" stroke-width="1.5"/><text x="195.0" y="144.0" font-size="9.5" fill="#495057" text-anchor="middle">S</text><text x="195.0" y="164.0" font-size="12.5" fill="#212529" font-weight="700" text-anchor="middle">1U</text><rect x="228.0" y="123.0" width="54.0" height="54.0" rx="7" fill="#ffffff" stroke="#c3c9cf" stroke-width="1.5"/><text x="255.0" y="144.0" font-size="9.5" fill="#495057" text-anchor="middle">D</text><text x="255.0" y="164.0" font-size="12.5" fill="#212529" font-weight="700" text-anchor="middle">1U</text><rect x="288.0" y="123.0" width="54.0" height="54.0" rx="7" fill="#ffffff" stroke="#c3c9cf" stroke-width="1.5"/><text x="315.0" y="144.0" font-size="9.5" fill="#495057" text-anchor="middle">F</text><text x="315.0" y="164.0" font-size="12.5" fill="#212529" font-weight="700" text-anchor="middle">1U</text><rect x="348.0" y="123.0" width="54.0" height="54.0" rx="7" fill="#ffffff" stroke="#c3c9cf" stroke-width="1.5"/><text x="375.0" y="144.0" font-size="9.5" fill="#495057" text-anchor="middle">G</text><text x="375.0" y="164.0" font-size="12.5" fill="#212529" font-weight="700" text-anchor="middle">1U</text><rect x="453.0" y="123.0" width="54.0" height="54.0" rx="7" fill="#ffffff" stroke="#c3c9cf" stroke-width="1.5"/><text x="480.0" y="144.0" font-size="9.5" fill="#495057" text-anchor="middle">H</text><text x="480.0" y="164.0" font-size="12.5" fill="#212529" font-weight="700" text-anchor="middle">1U</text><rect x="513.0" y="123.0" width="54.0" height="54.0" rx="7" fill="#ffffff" stroke="#c3c9cf" stroke-width="1.5"/><text x="540.0" y="144.0" font-size="9.5" fill="#495057" text-anchor="middle">J</text><text x="540.0" y="164.0" font-size="12.5" fill="#212529" font-weight="700" text-anchor="middle">1U</text><rect x="573.0" y="123.0" width="54.0" height="54.0" rx="7" fill="#ffffff" stroke="#c3c9cf" stroke-width="1.5"/><text x="600.0" y="144.0" font-size="9.5" fill="#495057" text-anchor="middle">K</text><text x="600.0" y="164.0" font-size="12.5" fill="#212529" font-weight="700" text-anchor="middle">1U</text><rect x="633.0" y="123.0" width="54.0" height="54.0" rx="7" fill="#ffffff" stroke="#c3c9cf" stroke-width="1.5"/><text x="660.0" y="144.0" font-size="9.5" fill="#495057" text-anchor="middle">L</text><text x="660.0" y="164.0" font-size="12.5" fill="#212529" font-weight="700" text-anchor="middle">1U</text><rect x="693.0" y="123.0" width="54.0" height="54.0" rx="7" fill="#ffffff" stroke="#c3c9cf" stroke-width="1.5"/><text x="720.0" y="144.0" font-size="9.5" fill="#495057" text-anchor="middle">;</text><text x="720.0" y="164.0" font-size="12.5" fill="#212529" font-weight="700" text-anchor="middle">1U</text><rect x="753.0" y="123.0" width="129.0" height="54.0" rx="7" fill="#e8dcf5" stroke="#7d5bb0" stroke-width="1.5"/><text x="817.5" y="144.0" font-size="9.5" fill="#495057" text-anchor="middle">Enter</text><text x="817.5" y="164.0" font-size="12.5" fill="#212529" font-weight="700" text-anchor="middle">2.25U</text><rect x="3.0" y="183.0" width="99.0" height="54.0" rx="7" fill="#fff3cd" stroke="#a07d1c" stroke-width="1.5"/><text x="52.5" y="204.0" font-size="9.5" fill="#495057" text-anchor="middle">Shift</text><text x="52.5" y="224.0" font-size="12.5" fill="#212529" font-weight="700" text-anchor="middle">1.75U</text><rect x="108.0" y="183.0" width="54.0" height="54.0" rx="7" fill="#ffffff" stroke="#c3c9cf" stroke-width="1.5"/><text x="135.0" y="204.0" font-size="9.5" fill="#495057" text-anchor="middle">Z</text><text x="135.0" y="224.0" font-size="12.5" fill="#212529" font-weight="700" text-anchor="middle">1U</text><rect x="168.0" y="183.0" width="54.0" height="54.0" rx="7" fill="#ffffff" stroke="#c3c9cf" stroke-width="1.5"/><text x="195.0" y="204.0" font-size="9.5" fill="#495057" text-anchor="middle">X</text><text x="195.0" y="224.0" font-size="12.5" fill="#212529" font-weight="700" text-anchor="middle">1U</text><rect x="228.0" y="183.0" width="54.0" height="54.0" rx="7" fill="#ffffff" stroke="#c3c9cf" stroke-width="1.5"/><text x="255.0" y="204.0" font-size="9.5" fill="#495057" text-anchor="middle">C</text><text x="255.0" y="224.0" font-size="12.5" fill="#212529" font-weight="700" text-anchor="middle">1U</text><rect x="288.0" y="183.0" width="54.0" height="54.0" rx="7" fill="#ffffff" stroke="#c3c9cf" stroke-width="1.5"/><text x="315.0" y="204.0" font-size="9.5" fill="#495057" text-anchor="middle">V</text><text x="315.0" y="224.0" font-size="12.5" fill="#212529" font-weight="700" text-anchor="middle">1U</text><rect x="348.0" y="183.0" width="54.0" height="54.0" rx="7" fill="#ffffff" stroke="#c3c9cf" stroke-width="1.5"/><text x="375.0" y="204.0" font-size="9.5" fill="#495057" text-anchor="middle">B</text><text x="375.0" y="224.0" font-size="12.5" fill="#212529" font-weight="700" text-anchor="middle">1U</text><rect x="453.0" y="183.0" width="54.0" height="54.0" rx="7" fill="#ffffff" stroke="#c3c9cf" stroke-width="1.5"/><text x="480.0" y="204.0" font-size="9.5" fill="#495057" text-anchor="middle">N</text><text x="480.0" y="224.0" font-size="12.5" fill="#212529" font-weight="700" text-anchor="middle">1U</text><rect x="513.0" y="183.0" width="54.0" height="54.0" rx="7" fill="#ffffff" stroke="#c3c9cf" stroke-width="1.5"/><text x="540.0" y="204.0" font-size="9.5" fill="#495057" text-anchor="middle">M</text><text x="540.0" y="224.0" font-size="12.5" fill="#212529" font-weight="700" text-anchor="middle">1U</text><rect x="573.0" y="183.0" width="54.0" height="54.0" rx="7" fill="#ffffff" stroke="#c3c9cf" stroke-width="1.5"/><text x="600.0" y="204.0" font-size="9.5" fill="#495057" text-anchor="middle">,</text><text x="600.0" y="224.0" font-size="12.5" fill="#212529" font-weight="700" text-anchor="middle">1U</text><rect x="633.0" y="183.0" width="54.0" height="54.0" rx="7" fill="#ffffff" stroke="#c3c9cf" stroke-width="1.5"/><text x="660.0" y="204.0" font-size="9.5" fill="#495057" text-anchor="middle">.</text><text x="660.0" y="224.0" font-size="12.5" fill="#212529" font-weight="700" text-anchor="middle">1U</text><rect x="693.0" y="183.0" width="54.0" height="54.0" rx="7" fill="#ffffff" stroke="#c3c9cf" stroke-width="1.5"/><text x="720.0" y="204.0" font-size="9.5" fill="#495057" text-anchor="middle">/</text><text x="720.0" y="224.0" font-size="12.5" fill="#212529" font-weight="700" text-anchor="middle">1U</text><rect x="753.0" y="183.0" width="54.0" height="54.0" rx="7" fill="#ffffff" stroke="#c3c9cf" stroke-width="1.5"/><text x="780.0" y="204.0" font-size="9.5" fill="#495057" text-anchor="middle">↑</text><text x="780.0" y="224.0" font-size="12.5" fill="#212529" font-weight="700" text-anchor="middle">1U</text><rect x="813.0" y="183.0" width="69.0" height="54.0" rx="7" fill="#dbeafe" stroke="#4d82c4" stroke-width="1.5"/><text x="847.5" y="204.0" font-size="9.5" fill="#495057" text-anchor="middle">Shift</text><text x="847.5" y="224.0" font-size="12.5" fill="#212529" font-weight="700" text-anchor="middle">1.25U</text><rect x="33.0" y="243.0" width="69.0" height="54.0" rx="7" fill="#dbeafe" stroke="#4d82c4" stroke-width="1.5"/><text x="67.5" y="264.0" font-size="9.5" fill="#495057" text-anchor="middle">Ctrl</text><text x="67.5" y="284.0" font-size="12.5" fill="#212529" font-weight="700" text-anchor="middle">1.25U</text><rect x="108.0" y="243.0" width="69.0" height="54.0" rx="7" fill="#dbeafe" stroke="#4d82c4" stroke-width="1.5"/><text x="142.5" y="264.0" font-size="9.5" fill="#495057" text-anchor="middle">Win</text><text x="142.5" y="284.0" font-size="12.5" fill="#212529" font-weight="700" text-anchor="middle">1.25U</text><rect x="183.0" y="243.0" width="69.0" height="54.0" rx="7" fill="#dbeafe" stroke="#4d82c4" stroke-width="1.5"/><text x="217.5" y="264.0" font-size="9.5" fill="#495057" text-anchor="middle">Alt</text><text x="217.5" y="284.0" font-size="12.5" fill="#212529" font-weight="700" text-anchor="middle">1.25U</text><rect x="258.0" y="243.0" width="129.0" height="54.0" rx="7" fill="#e8dcf5" stroke="#7d5bb0" stroke-width="1.5"/><text x="322.5" y="264.0" font-size="9.5" fill="#495057" text-anchor="middle">右クリック</text><text x="322.5" y="284.0" font-size="12.5" fill="#212529" font-weight="700" text-anchor="middle">2.25U</text><rect x="393.0" y="243.0" width="69.0" height="54.0" rx="7" fill="#dbeafe" stroke="#4d82c4" stroke-width="1.5"/><text x="427.5" y="264.0" font-size="9.5" fill="#495057" text-anchor="middle">MO(1)</text><text x="427.5" y="284.0" font-size="12.5" fill="#212529" font-weight="700" text-anchor="middle">1.25U</text><rect x="468.0" y="243.0" width="159.0" height="54.0" rx="7" fill="#d2f2ea" stroke="#1f8a70" stroke-width="1.5"/><text x="547.5" y="264.0" font-size="9.5" fill="#495057" text-anchor="middle">Delete</text><text x="547.5" y="284.0" font-size="12.5" fill="#212529" font-weight="700" text-anchor="middle">2.75U</text><rect x="633.0" y="243.0" width="54.0" height="54.0" rx="7" fill="#ffffff" stroke="#c3c9cf" stroke-width="1.5"/><text x="660.0" y="264.0" font-size="9.5" fill="#495057" text-anchor="middle">MO(2)</text><text x="660.0" y="284.0" font-size="12.5" fill="#212529" font-weight="700" text-anchor="middle">1U</text><rect x="693.0" y="243.0" width="54.0" height="54.0" rx="7" fill="#ffffff" stroke="#c3c9cf" stroke-width="1.5"/><text x="720.0" y="264.0" font-size="9.5" fill="#495057" text-anchor="middle">←</text><text x="720.0" y="284.0" font-size="12.5" fill="#212529" font-weight="700" text-anchor="middle">1U</text><rect x="753.0" y="243.0" width="54.0" height="54.0" rx="7" fill="#ffffff" stroke="#c3c9cf" stroke-width="1.5"/><text x="780.0" y="264.0" font-size="9.5" fill="#495057" text-anchor="middle">↓</text><text x="780.0" y="284.0" font-size="12.5" fill="#212529" font-weight="700" text-anchor="middle">1U</text><rect x="813.0" y="243.0" width="54.0" height="54.0" rx="7" fill="#ffffff" stroke="#c3c9cf" stroke-width="1.5"/><text x="840.0" y="264.0" font-size="9.5" fill="#495057" text-anchor="middle">→</text><text x="840.0" y="284.0" font-size="12.5" fill="#212529" font-weight="700" text-anchor="middle">1U</text></g><text x="20" y="406" font-size="11" fill="#868e96" font-weight="700">キーキャップサイズと必要数（この構成の全体）</text><rect x="24" y="417" width="14" height="13" rx="3" fill="#ffffff" stroke="#c3c9cf" stroke-width="1.2"/><text x="43" y="428" font-size="10.5" fill="#495057">1U ×47</text><rect x="136" y="417" width="14" height="13" rx="3" fill="#dbeafe" stroke="#4d82c4" stroke-width="1.2"/><text x="155" y="428" font-size="10.5" fill="#495057">1.25U ×5</text><rect x="248" y="417" width="14" height="13" rx="3" fill="#d8f0dc" stroke="#2f8f45" stroke-width="1.2"/><text x="267" y="428" font-size="10.5" fill="#495057">1.5U ×2</text><rect x="360" y="417" width="14" height="13" rx="3" fill="#fff3cd" stroke="#a07d1c" stroke-width="1.2"/><text x="379" y="428" font-size="10.5" fill="#495057">1.75U ×2</text><rect x="472" y="417" width="14" height="13" rx="3" fill="#fde0ec" stroke="#c2447e" stroke-width="1.2"/><text x="491" y="428" font-size="10.5" fill="#495057">2U ×1</text><rect x="584" y="417" width="14" height="13" rx="3" fill="#e8dcf5" stroke="#7d5bb0" stroke-width="1.2"/><text x="603" y="428" font-size="10.5" fill="#495057">2.25U ×2</text><rect x="696" y="417" width="14" height="13" rx="3" fill="#d2f2ea" stroke="#1f8a70" stroke-width="1.2"/><text x="715" y="428" font-size="10.5" fill="#495057">2.75U ×1</text><text x="20" y="456" font-size="9.5" fill="#adb5bd">※ 上4段は全レイアウト共通。数量はこの構成でキーボード全体に必要なキーキャップ数です。</text></svg>