<svg xmlns="http://www.w3.org/2000/svg" width="968" height="500" viewBox="0 0 968 500" font-family="'Noto Sans CJK JP','Noto Sans JP','Hiragino Sans','Yu Gothic UI',sans-serif"><defs><marker id="arr" markerWidth="7" markerHeight="7" refX="5" refY="3.5" orient="auto"><path d="M0,0 L7,3.5 L0,7 z" fill="#868e96"/></marker></defs><rect width="968" height="500" fill="#ffffff"/><rect x="20" y="14" width="86" height="26" rx="13" fill="#2f8f45"/><text x="63" y="32" font-size="13" fill="#ffffff" font-weight="700" text-anchor="middle">Layer 2</text><text x="118" y="33" font-size="18" fill="#212529" font-weight="700">設定レイヤー（MO(2) 押下中）</text><text x="948" y="24" font-size="11.5" fill="#495057" text-anchor="end">MO(2) を押しながら各キーを押す</text><circle cx="891.12" cy="36" r="5" fill="#cc7a29" stroke="#adb5bd"/><text x="948" y="40" font-size="11.5" fill="#495057" text-anchor="end">LED: 橙</text><g transform="translate(34,70)"><rect x="-14" y="-14" width="928.0" height="328" rx="12" fill="#f1f3f5" stroke="#dee2e6" stroke-width="1.5"/><rect x="48.0" y="3.0" width="54.0" height="54.0" rx="7" fill="#e9ecef" stroke="#b4bbc2" stroke-width="1.5"/><text x="75.0" y="16.0" font-size="9.5" fill="#868e96" text-anchor="middle">※無効</text><text x="75.0" y="35.9" font-size="8.0" fill="#212529" font-weight="600" text-anchor="middle">設定消去</text><rect x="108.0" y="3.0" width="54.0" height="54.0" rx="7" fill="#e7f0fb" stroke="#2f66c4" stroke-width="1.5"/><text x="135.0" y="16.0" font-size="9.5" fill="#868e96" text-anchor="middle">青</text><text x="135.0" y="36.6" font-size="10.0" fill="#212529" font-weight="600" text-anchor="middle">速度1</text><rect x="168.0" y="3.0" width="54.0" height="54.0" rx="7" fill="#e7f0fb" stroke="#2f66c4" stroke-width="1.5"/><text x="195.0" y="16.0" font-size="9.5" fill="#868e96" text-anchor="middle">緑</text><text x="195.0" y="36.6" font-size="10.0" fill="#212529" font-weight="600" text-anchor="middle">速度2</text><rect x="228.0" y="3.0" width="54.0" height="54.0" rx="7" fill="#e7f0fb" stroke="#2f66c4" stroke-width="1.5"/><text x="255.0" y="16.0" font-size="9.5" fill="#868e96" text-anchor="middle">赤</text><text x="255.0" y="36.6" font-size="10.0" fill="#212529" font-weight="600" text-anchor="middle">速度3</text><rect x="288.0" y="3.0" width="54.0" height="54.0" rx="7" fill="#e7f0fb" stroke="#2f66c4" stroke-width="1.5"/><text x="315.0" y="16.0" font-size="9.5" fill="#868e96" text-anchor="middle">紫</text><text x="315.0" y="36.6" font-size="10.0" fill="#212529" font-weight="600" text-anchor="middle">速度4</text><rect x="348.0" y="3.0" width="54.0" height="54.0" rx="7" fill="#e7f0fb" stroke="#2f66c4" stroke-width="1.5"/><text x="375.0" y="16.0" font-size="9.5" fill="#868e96" text-anchor="middle">橙</text><text x="375.0" y="36.6" font-size="10.0" fill="#212529" font-weight="600" text-anchor="middle">速度5</text><rect x="453.0" y="3.0" width="54.0" height="54.0" rx="7" fill="#fbfcfc" stroke="#e3e7ea" stroke-width="1.5"/><text x="480.0" y="16.0" font-size="9.5" fill="#ccd1d6" text-anchor="middle">^</text><text x="480.0" y="37.7" font-size="13.0" fill="#b6bcc2" font-weight="600" text-anchor="middle">6</text><rect x="513.0" y="3.0" width="54.0" height="54.0" rx="7" fill="#fbfcfc" stroke="#e3e7ea" stroke-width="1.5"/><text x="540.0" y="16.0" font-size="9.5" fill="#ccd1d6" text-anchor="middle">&amp;</text><text x="540.0" y="37.7" font-size="13.0" fill="#b6bcc2" font-weight="600" text-anchor="middle">7</text><rect x="573.0" y="3.0" width="54.0" height="54.0" rx="7" fill="#fbfcfc" stroke="#e3e7ea" stroke-width="1.5"/><text x="600.0" y="16.0" font-size="9.5" fill="#ccd1d6" text-anchor="middle">*</text><text x="600.0" y="37.7" font-size="13.0" fill="#b6bcc2" font-weight="600" text-anchor="middle">8</text><rect x="633.0" y="3.0" width="54.0" height="54.0" rx="7" fill="#fbfcfc" stroke="#e3e7ea" stroke-width="1.5"/><text x="660.0" y="16.0" font-size="9.5" fill="#ccd1d6" text-anchor="middle">(</text><text x="660.0" y="37.7" font-size="13.0" fill="#b6bcc2" font-weight="600" text-anchor="middle">9</text><rect x="693.0" y="3.0" width="54.0" height="54.0" rx="7" fill="#e9ecef" stroke="#b4bbc2" stroke-width="1.5"/><text x="720.0" y="32.9" font-size="8.0" fill="#212529" font-weight="600" text-anchor="middle">BOOTSEL</text><rect x="753.0" y="3.0" width="114.0" height="54.0" rx="7" fill="#e9ecef" stroke="#b4bbc2" stroke-width="1.5"/><text x="810.0" y="33.6" font-size="10.0" fill="#212529" font-weight="600" text-anchor="middle">再起動</text><rect x="12.0" y="63.0" width="84.0" height="54.0" rx="7" fill="#fbfcfc" stroke="#e3e7ea" stroke-width="1.5"/><text x="54.0" y="94.7" font-size="13.0" fill="#b6bcc2" font-weight="600" text-anchor="middle">Tab</text><rect x="108.0" y="63.0" width="54.0" height="54.0" rx="7" fill="#e7f0fb" stroke="#2f66c4" stroke-width="1.5"/><text x="135.0" y="76.0" font-size="9.5" fill="#868e96" text-anchor="middle">custom</text><text x="135.0" y="96.3" font-size="9.0" fill="#212529" font-weight="600" text-anchor="middle">速度+</text><rect x="168.0" y="63.0" width="54.0" height="54.0" rx="7" fill="#e7f0fb" stroke="#2f66c4" stroke-width="1.5"/><text x="195.0" y="76.0" font-size="9.5" fill="#868e96" text-anchor="middle">custom</text><text x="195.0" y="96.3" font-size="9.0" fill="#212529" font-weight="600" text-anchor="middle">速度−</text><rect x="228.0" y="63.0" width="54.0" height="54.0" rx="7" fill="#e9ecef" stroke="#b4bbc2" stroke-width="1.5"/><text x="255.0" y="76.0" font-size="9.5" fill="#868e96" text-anchor="middle">TG(3)</text><text x="255.0" y="95.9" font-size="8.0" fill="#212529" font-weight="600" text-anchor="middle">マウス層</text><rect x="288.0" y="63.0" width="54.0" height="54.0" rx="7" fill="#fbfcfc" stroke="#e3e7ea" stroke-width="1.5"/><text x="315.0" y="94.7" font-size="13.0" fill="#b6bcc2" font-weight="600" text-anchor="middle">R</text><rect x="348.0" y="63.0" width="54.0" height="54.0" rx="7" fill="#e7f0fb" stroke="#2f66c4" stroke-width="1.5"/><text x="375.0" y="76.0" font-size="9.5" fill="#868e96" text-anchor="middle">紫/白</text><text x="375.0" y="95.4" font-size="6.5" fill="#212529" font-weight="600" text-anchor="middle">スクロール曲線</text><rect x="453.0" y="63.0" width="54.0" height="54.0" rx="7" fill="#e9f7ec" stroke="#2f8f45" stroke-width="1.5"/><text x="480.0" y="76.0" font-size="9.5" fill="#868e96" text-anchor="middle">150ms</text><text x="480.0" y="96.5" font-size="9.5" fill="#212529" font-weight="600" text-anchor="middle">遅延S</text><rect x="513.0" y="63.0" width="54.0" height="54.0" rx="7" fill="#e9f7ec" stroke="#2f8f45" stroke-width="1.5"/><text x="540.0" y="76.0" font-size="9.5" fill="#868e96" text-anchor="middle">400ms</text><text x="540.0" y="96.5" font-size="9.5" fill="#212529" font-weight="600" text-anchor="middle">遅延M</text><rect x="573.0" y="63.0" width="54.0" height="54.0" rx="7" fill="#e9f7ec" stroke="#2f8f45" stroke-width="1.5"/><text x="600.0" y="76.0" font-size="9.5" fill="#868e96" text-anchor="middle">800ms</text><text x="600.0" y="96.5" font-size="9.5" fill="#212529" font-weight="600" text-anchor="middle">遅延L</text><rect x="633.0" y="63.0" width="54.0" height="54.0" rx="7" fill="#e9f7ec" stroke="#2f8f45" stroke-width="1.5"/><text x="660.0" y="76.0" font-size="9.5" fill="#868e96" text-anchor="middle">シアン/橙</text><text x="660.0" y="95.9" font-size="8.0" fill="#212529" font-weight="600" text-anchor="middle">自動層切替</text><rect x="693.0" y="63.0" width="54.0" height="54.0" rx="7" fill="#fbfcfc" stroke="#e3e7ea" stroke-width="1.5"/><text x="720.0" y="94.7" font-size="13.0" fill="#b6bcc2" font-weight="600" text-anchor="middle">P</text><rect x="753.0" y="63.0" width="54.0" height="54.0" rx="7" fill="#fbfcfc" stroke="#e3e7ea" stroke-width="1.5"/><text x="780.0" y="76.0" font-size="9.5" fill="#ccd1d6" text-anchor="middle">{</text><text x="780.0" y="97.7" font-size="13.0" fill="#b6bcc2" font-weight="600" text-anchor="middle">[</text><rect x="813.0" y="63.0" width="84.0" height="54.0" rx="7" fill="#fbfcfc" stroke="#e3e7ea" stroke-width="1.5"/><text x="855.0" y="76.0" font-size="9.5" fill="#ccd1d6" text-anchor="middle">|</text><text x="855.0" y="97.7" font-size="13.0" fill="#b6bcc2" font-weight="600" text-anchor="middle">\</text><rect x="3.0" y="123.0" width="99.0" height="54.0" rx="7" fill="#fbfcfc" stroke="#e3e7ea" stroke-width="1.5"/><text x="52.5" y="154.0" font-size="11.0" fill="#b6bcc2" font-weight="600" text-anchor="middle">Ctrl</text><rect x="108.0" y="123.0" width="54.0" height="54.0" rx="7" fill="#e7f0fb" stroke="#2f66c4" stroke-width="1.5"/><text x="135.0" y="136.0" font-size="9.5" fill="#868e96" text-anchor="middle">custom</text><text x="135.0" y="156.3" font-size="9.0" fill="#212529" font-weight="600" text-anchor="middle">加速+</text><rect x="168.0" y="123.0" width="54.0" height="54.0" rx="7" fill="#e7f0fb" stroke="#2f66c4" stroke-width="1.5"/><text x="195.0" y="136.0" font-size="9.5" fill="#868e96" text-anchor="middle">custom</text><text x="195.0" y="156.3" font-size="9.0" fill="#212529" font-weight="600" text-anchor="middle">加速−</text><rect x="228.0" y="123.0" width="54.0" height="54.0" rx="7" fill="#e7f0fb" stroke="#2f66c4" stroke-width="1.5"/><text x="255.0" y="136.0" font-size="9.5" fill="#868e96" text-anchor="middle">custom</text><text x="255.0" y="156.3" font-size="9.0" fill="#212529" font-weight="600" text-anchor="middle">減速+</text><rect x="288.0" y="123.0" width="54.0" height="54.0" rx="7" fill="#e7f0fb" stroke="#2f66c4" stroke-width="1.5"/><text x="315.0" y="136.0" font-size="9.5" fill="#868e96" text-anchor="middle">custom</text><text x="315.0" y="156.3" font-size="9.0" fill="#212529" font-weight="600" text-anchor="middle">減速−</text><rect x="348.0" y="123.0" width="54.0" height="54.0" rx="7" fill="#fbfcfc" stroke="#e3e7ea" stroke-width="1.5"/><text x="375.0" y="154.7" font-size="13.0" fill="#b6bcc2" font-weight="600" text-anchor="middle">G</text><rect x="453.0" y="123.0" width="54.0" height="54.0" rx="7" fill="#fbfcfc" stroke="#e3e7ea" stroke-width="1.5"/><text x="480.0" y="154.7" font-size="13.0" fill="#b6bcc2" font-weight="600" text-anchor="middle">H</text><rect x="513.0" y="123.0" width="54.0" height="54.0" rx="7" fill="#fbfcfc" stroke="#e3e7ea" stroke-width="1.5"/><text x="540.0" y="154.7" font-size="13.0" fill="#b6bcc2" font-weight="600" text-anchor="middle">J</text><rect x="573.0" y="123.0" width="54.0" height="54.0" rx="7" fill="#fbfcfc" stroke="#e3e7ea" stroke-width="1.5"/><text x="600.0" y="154.7" font-size="13.0" fill="#b6bcc2" font-weight="600" text-anchor="middle">K</text><rect x="633.0" y="123.0" width="54.0" height="54.0" rx="7" fill="#fbfcfc" stroke="#e3e7ea" stroke-width="1.5"/><text x="660.0" y="154.7" font-size="13.0" fill="#b6bcc2" font-weight="600" text-anchor="middle">L</text><rect x="693.0" y="123.0" width="54.0" height="54.0" rx="7" fill="#fbfcfc" stroke="#e3e7ea" stroke-width="1.5"/><text x="720.0" y="136.0" font-size="9.5" fill="#ccd1d6" text-anchor="middle">:</text><text x="720.0" y="157.7" font-size="13.0" fill="#b6bcc2" font-weight="600" text-anchor="middle">;</text><rect x="753.0" y="123.0" width="129.0" height="54.0" rx="7" fill="#fbfcfc" stroke="#e3e7ea" stroke-width="1.5"/><text x="817.5" y="154.0" font-size="11.0" fill="#b6bcc2" font-weight="600" text-anchor="middle">Enter</text><rect x="3.0" y="183.0" width="99.0" height="54.0" rx="7" fill="#fbfcfc" stroke="#e3e7ea" stroke-width="1.5"/><text x="52.5" y="214.0" font-size="11.0" fill="#b6bcc2" font-weight="600" text-anchor="middle">Shift</text><rect x="108.0" y="183.0" width="54.0" height="54.0" rx="7" fill="#fff1e0" stroke="#cc7a29" stroke-width="1.5"/><text x="135.0" y="196.0" font-size="9.5" fill="#868e96" text-anchor="middle">緑/赤</text><text x="135.0" y="215.7" font-size="7.5" fill="#212529" font-weight="600" text-anchor="middle">音ON/OFF</text><rect x="168.0" y="183.0" width="54.0" height="54.0" rx="7" fill="#fff1e0" stroke="#cc7a29" stroke-width="1.5"/><text x="195.0" y="196.0" font-size="9.5" fill="#868e96" text-anchor="middle">青/黄</text><text x="195.0" y="215.9" font-size="8.0" fill="#212529" font-weight="600" text-anchor="middle">音モード</text><rect x="228.0" y="183.0" width="54.0" height="54.0" rx="7" fill="#fbfcfc" stroke="#e3e7ea" stroke-width="1.5"/><text x="255.0" y="214.7" font-size="13.0" fill="#b6bcc2" font-weight="600" text-anchor="middle">C</text><rect x="288.0" y="183.0" width="54.0" height="54.0" rx="7" fill="#fbfcfc" stroke="#e3e7ea" stroke-width="1.5"/><text x="315.0" y="214.7" font-size="13.0" fill="#b6bcc2" font-weight="600" text-anchor="middle">V</text><rect x="348.0" y="183.0" width="54.0" height="54.0" rx="7" fill="#fbfcfc" stroke="#e3e7ea" stroke-width="1.5"/><text x="375.0" y="214.7" font-size="13.0" fill="#b6bcc2" font-weight="600" text-anchor="middle">B</text><rect x="453.0" y="183.0" width="54.0" height="54.0" rx="7" fill="#fbfcfc" stroke="#e3e7ea" stroke-width="1.5"/><text x="480.0" y="214.7" font-size="13.0" fill="#b6bcc2" font-weight="600" text-anchor="middle">N</text><rect x="513.0" y="183.0" width="54.0" height="54.0" rx="7" fill="#fbfcfc" stroke="#e3e7ea" stroke-width="1.5"/><text x="540.0" y="214.7" font-size="13.0" fill="#b6bcc2" font-weight="600" text-anchor="middle">M</text><rect x="573.0" y="183.0" width="54.0" height="54.0" rx="7" fill="#fbfcfc" stroke="#e3e7ea" stroke-width="1.5"/><text x="600.0" y="196.0" font-size="9.5" fill="#ccd1d6" text-anchor="middle">&lt;</text><text x="600.0" y="217.7" font-size="13.0" fill="#b6bcc2" font-weight="600" text-anchor="middle">,</text><rect x="633.0" y="183.0" width="54.0" height="54.0" rx="7" fill="#fbfcfc" stroke="#e3e7ea" stroke-width="1.5"/><text x="660.0" y="196.0" font-size="9.5" fill="#ccd1d6" text-anchor="middle">&gt;</text><text x="660.0" y="217.7" font-size="13.0" fill="#b6bcc2" font-weight="600" text-anchor="middle">.</text><rect x="693.0" y="183.0" width="54.0" height="54.0" rx="7" fill="#fbfcfc" stroke="#e3e7ea" stroke-width="1.5"/><text x="720.0" y="196.0" font-size="9.5" fill="#ccd1d6" text-anchor="middle">?</text><text x="720.0" y="217.7" font-size="13.0" fill="#b6bcc2" font-weight="600" text-anchor="middle">/</text><rect x="753.0" y="183.0" width="54.0" height="54.0" rx="7" fill="#fbfcfc" stroke="#e3e7ea" stroke-width="1.5"/><text x="780.0" y="214.7" font-size="13.0" fill="#b6bcc2" font-weight="600" text-anchor="middle">↑</text><rect x="813.0" y="183.0" width="69.0" height="54.0" rx="7" fill="#fbfcfc" stroke="#e3e7ea" stroke-width="1.5"/><text x="847.5" y="214.0" font-size="11.0" fill="#b6bcc2" font-weight="600" text-anchor="middle">Shift</text><rect x="33.0" y="243.0" width="69.0" height="54.0" rx="7" fill="#fbfcfc" stroke="#e3e7ea" stroke-width="1.5"/><text x="67.5" y="274.0" font-size="11.0" fill="#b6bcc2" font-weight="600" text-anchor="middle">Ctrl</text><rect x="108.0" y="243.0" width="69.0" height="54.0" rx="7" fill="#fbfcfc" stroke="#e3e7ea" stroke-width="1.5"/><text x="142.5" y="274.7" font-size="13.0" fill="#b6bcc2" font-weight="600" text-anchor="middle">Win</text><rect x="183.0" y="243.0" width="84.0" height="54.0" rx="7" fill="#fbfcfc" stroke="#e3e7ea" stroke-width="1.5"/><text x="225.0" y="274.7" font-size="13.0" fill="#b6bcc2" font-weight="600" text-anchor="middle">Alt</text><rect x="273.0" y="243.0" width="54.0" height="54.0" rx="7" fill="#fbfcfc" stroke="#e3e7ea" stroke-width="1.5"/><text x="300.0" y="273.3" font-size="9.2" fill="#b6bcc2" font-weight="600" text-anchor="middle">左クリック</text><rect x="333.0" y="243.0" width="54.0" height="54.0" rx="7" fill="#fbfcfc" stroke="#e3e7ea" stroke-width="1.5"/><text x="360.0" y="273.3" font-size="9.2" fill="#b6bcc2" font-weight="600" text-anchor="middle">右クリック</text><rect x="393.0" y="243.0" width="69.0" height="54.0" rx="7" fill="#fbfcfc" stroke="#e3e7ea" stroke-width="1.5"/><text x="427.5" y="256.0" font-size="9.5" fill="#ccd1d6" text-anchor="middle">Fn</text><text x="427.5" y="277.0" font-size="11.0" fill="#b6bcc2" font-weight="600" text-anchor="middle">Scrl</text><rect x="468.0" y="243.0" width="54.0" height="54.0" rx="7" fill="#fbfcfc" stroke="#e3e7ea" stroke-width="1.5"/><text x="495.0" y="274.0" font-size="11.0" fill="#b6bcc2" font-weight="600" text-anchor="middle">Space</text><rect x="528.0" y="243.0" width="99.0" height="54.0" rx="7" fill="#fbfcfc" stroke="#e3e7ea" stroke-width="1.5"/><text x="577.5" y="274.0" font-size="11.0" fill="#b6bcc2" font-weight="600" text-anchor="middle">Delete</text><rect x="633.0" y="243.0" width="54.0" height="54.0" rx="7" fill="#fbfcfc" stroke="#e3e7ea" stroke-width="1.5"/><text x="660.0" y="256.0" font-size="9.5" fill="#ccd1d6" text-anchor="middle">設定</text><text x="660.0" y="277.0" font-size="11.0" fill="#b6bcc2" font-weight="600" text-anchor="middle">MO(2)</text><rect x="693.0" y="243.0" width="54.0" height="54.0" rx="7" fill="#fbfcfc" stroke="#e3e7ea" stroke-width="1.5"/><text x="720.0" y="274.7" font-size="13.0" fill="#b6bcc2" font-weight="600" text-anchor="middle">←</text><rect x="753.0" y="243.0" width="54.0" height="54.0" rx="7" fill="#fbfcfc" stroke="#e3e7ea" stroke-width="1.5"/><text x="780.0" y="274.7" font-size="13.0" fill="#b6bcc2" font-weight="600" text-anchor="middle">↓</text><rect x="813.0" y="243.0" width="54.0" height="54.0" rx="7" fill="#fbfcfc" stroke="#e3e7ea" stroke-width="1.5"/><text x="840.0" y="274.7" font-size="13.0" fill="#b6bcc2" font-weight="600" text-anchor="middle">→</text><circle cx="427.5" cy="150.0" r="18.0" fill="#d64545" stroke="#a02828" stroke-width="2"/><circle cx="427.5" cy="150.0" r="9.9" fill="none" stroke="#e88f8f" stroke-width="1.5" stroke-dasharray="2,3"/><text x="427.5" y="182.0" font-size="9.5" fill="#a02828" text-anchor="middle" font-weight="600">TrackPoint</text></g><text x="20" y="406" font-size="11" fill="#868e96" font-weight="700">ロータリーエンコーダ（オプション）</text><circle cx="44" cy="440" r="15" fill="#e9ecef" stroke="#868e96" stroke-width="2"/><circle cx="44" cy="440" r="4.5" fill="#adb5bd"/><line x1="44" y1="425" x2="44" y2="431" stroke="#868e96" stroke-width="2"/><path d="M 23 444 a 21 21 0 0 1 6 -14" fill="none" stroke="#868e96" stroke-width="1.6" marker-end="url(#arr)"/><text x="71" y="428" font-size="10.5" fill="#495057">時計回り: オクターブ +</text><text x="71" y="443" font-size="10.5" fill="#495057">反時計回り: オクターブ −</text><text x="71" y="458" font-size="10.5" fill="#495057">ピアノモード中のみ有効</text><text x="20" y="474" font-size="9.5" fill="#adb5bd">※ 速度・遅延・サウンド・スクロール曲線の設定は flash に自動保存され、電源 OFF でも保持されます</text><rect x="300" y="416" width="14" height="13" rx="3" fill="#e7f0fb" stroke="#2f66c4" stroke-width="1.2"/><text x="319" y="427" font-size="10.5" fill="#495057">TrackPoint の設定（速度・曲線）</text><rect x="560" y="416" width="14" height="13" rx="3" fill="#e9f7ec" stroke="#2f8f45" stroke-width="1.2"/><text x="579" y="427" font-size="10.5" fill="#495057">自動マウス層（遅延・ON/OFF）</text><rect x="300" y="438" width="14" height="13" rx="3" fill="#fff1e0" stroke="#cc7a29" stroke-width="1.2"/><text x="319" y="449" font-size="10.5" fill="#495057">サウンド設定（ON/OFF・モード）</text><rect x="560" y="438" width="14" height="13" rx="3" fill="#e9ecef" stroke="#b4bbc2" stroke-width="1.2"/><text x="579" y="449" font-size="10.5" fill="#495057">本体制御（BOOTSEL/再起動/マウス層）</text></svg>