<svg xmlns="http://www.w3.org/2000/svg" width="968" height="836" viewBox="0 0 968 836" font-family="'Noto Sans CJK JP','Noto Sans JP','Hiragino Sans','Yu Gothic UI',sans-serif"><defs><marker id="arr" markerWidth="7" markerHeight="7" refX="5" refY="3.5" orient="auto"><path d="M0,0 L7,3.5 L0,7 z" fill="#868e96"/></marker></defs><rect width="968" height="836" fill="#ffffff"/><text x="20" y="30" font-size="17" font-weight="700" fill="#212529">スタビライザーの取り付け位置</text><text x="20" y="68" font-size="13.5" font-weight="700" fill="#212529">5-Split Space（v2.1 出荷時）… 取り付け済み</text><g transform="translate(34,92)"><rect x="-14" y="-14" width="928.0" height="328" rx="12" fill="#f1f3f5" stroke="#dee2e6" stroke-width="1.5"/><rect x="48.0" y="3.0" width="54.0" height="54.0" rx="7" fill="#ffffff" stroke="#dde1e5" stroke-width="1.2"/><rect x="108.0" y="3.0" width="54.0" height="54.0" rx="7" fill="#ffffff" stroke="#dde1e5" stroke-width="1.2"/><rect x="168.0" y="3.0" width="54.0" height="54.0" rx="7" fill="#ffffff" stroke="#dde1e5" stroke-width="1.2"/><rect x="228.0" y="3.0" width="54.0" height="54.0" rx="7" fill="#ffffff" stroke="#dde1e5" stroke-width="1.2"/><rect x="288.0" y="3.0" width="54.0" height="54.0" rx="7" fill="#ffffff" stroke="#dde1e5" stroke-width="1.2"/><rect x="348.0" y="3.0" width="54.0" height="54.0" rx="7" fill="#ffffff" stroke="#dde1e5" stroke-width="1.2"/><rect x="453.0" y="3.0" width="54.0" height="54.0" rx="7" fill="#ffffff" stroke="#dde1e5" stroke-width="1.2"/><rect x="513.0" y="3.0" width="54.0" height="54.0" rx="7" fill="#ffffff" stroke="#dde1e5" stroke-width="1.2"/><rect x="573.0" y="3.0" width="54.0" height="54.0" rx="7" fill="#ffffff" stroke="#dde1e5" stroke-width="1.2"/><rect x="633.0" y="3.0" width="54.0" height="54.0" rx="7" fill="#ffffff" stroke="#dde1e5" stroke-width="1.2"/><rect x="693.0" y="3.0" width="54.0" height="54.0" rx="7" fill="#ffffff" stroke="#dde1e5" stroke-width="1.2"/><rect x="753.0" y="3.0" width="114.0" height="54.0" rx="7" fill="#ffd8a8" stroke="#cc7a29" stroke-width="2"/><text x="810.0" y="34.0" font-size="10.5" fill="#8a5416" font-weight="700" text-anchor="middle">2U スタビ</text><circle cx="774.0" cy="30.0" r="3.5" fill="#cc7a29"/><circle cx="846.0" cy="30.0" r="3.5" fill="#cc7a29"/><rect x="12.0" y="63.0" width="84.0" height="54.0" rx="7" fill="#ffffff" stroke="#dde1e5" stroke-width="1.2"/><rect x="108.0" y="63.0" width="54.0" height="54.0" rx="7" fill="#ffffff" stroke="#dde1e5" stroke-width="1.2"/><rect x="168.0" y="63.0" width="54.0" height="54.0" rx="7" fill="#ffffff" stroke="#dde1e5" stroke-width="1.2"/><rect x="228.0" y="63.0" width="54.0" height="54.0" rx="7" fill="#ffffff" stroke="#dde1e5" stroke-width="1.2"/><rect x="288.0" y="63.0" width="54.0" height="54.0" rx="7" fill="#ffffff" stroke="#dde1e5" stroke-width="1.2"/><rect x="348.0" y="63.0" width="54.0" height="54.0" rx="7" fill="#ffffff" stroke="#dde1e5" stroke-width="1.2"/><rect x="453.0" y="63.0" width="54.0" height="54.0" rx="7" fill="#ffffff" stroke="#dde1e5" stroke-width="1.2"/><rect x="513.0" y="63.0" width="54.0" height="54.0" rx="7" fill="#ffffff" stroke="#dde1e5" stroke-width="1.2"/><rect x="573.0" y="63.0" width="54.0" height="54.0" rx="7" fill="#ffffff" stroke="#dde1e5" stroke-width="1.2"/><rect x="633.0" y="63.0" width="54.0" height="54.0" rx="7" fill="#ffffff" stroke="#dde1e5" stroke-width="1.2"/><rect x="693.0" y="63.0" width="54.0" height="54.0" rx="7" fill="#ffffff" stroke="#dde1e5" stroke-width="1.2"/><rect x="753.0" y="63.0" width="54.0" height="54.0" rx="7" fill="#ffffff" stroke="#dde1e5" stroke-width="1.2"/><rect x="813.0" y="63.0" width="84.0" height="54.0" rx="7" fill="#ffffff" stroke="#dde1e5" stroke-width="1.2"/><rect x="3.0" y="123.0" width="99.0" height="54.0" rx="7" fill="#ffffff" stroke="#dde1e5" stroke-width="1.2"/><rect x="108.0" y="123.0" width="54.0" height="54.0" rx="7" fill="#ffffff" stroke="#dde1e5" stroke-width="1.2"/><rect x="168.0" y="123.0" width="54.0" height="54.0" rx="7" fill="#ffffff" stroke="#dde1e5" stroke-width="1.2"/><rect x="228.0" y="123.0" width="54.0" height="54.0" rx="7" fill="#ffffff" stroke="#dde1e5" stroke-width="1.2"/><rect x="288.0" y="123.0" width="54.0" height="54.0" rx="7" fill="#ffffff" stroke="#dde1e5" stroke-width="1.2"/><rect x="348.0" y="123.0" width="54.0" height="54.0" rx="7" fill="#ffffff" stroke="#dde1e5" stroke-width="1.2"/><rect x="453.0" y="123.0" width="54.0" height="54.0" rx="7" fill="#ffffff" stroke="#dde1e5" stroke-width="1.2"/><rect x="513.0" y="123.0" width="54.0" height="54.0" rx="7" fill="#ffffff" stroke="#dde1e5" stroke-width="1.2"/><rect x="573.0" y="123.0" width="54.0" height="54.0" rx="7" fill="#ffffff" stroke="#dde1e5" stroke-width="1.2"/><rect x="633.0" y="123.0" width="54.0" height="54.0" rx="7" fill="#ffffff" stroke="#dde1e5" stroke-width="1.2"/><rect x="693.0" y="123.0" width="54.0" height="54.0" rx="7" fill="#ffffff" stroke="#dde1e5" stroke-width="1.2"/><rect x="753.0" y="123.0" width="129.0" height="54.0" rx="7" fill="#ffd8a8" stroke="#cc7a29" stroke-width="2"/><text x="817.5" y="154.0" font-size="10.5" fill="#8a5416" font-weight="700" text-anchor="middle">2U スタビ</text><circle cx="781.5" cy="150.0" r="3.5" fill="#cc7a29"/><circle cx="853.5" cy="150.0" r="3.5" fill="#cc7a29"/><rect x="3.0" y="183.0" width="99.0" height="54.0" rx="7" fill="#ffffff" stroke="#dde1e5" stroke-width="1.2"/><rect x="108.0" y="183.0" width="54.0" height="54.0" rx="7" fill="#ffffff" stroke="#dde1e5" stroke-width="1.2"/><rect x="168.0" y="183.0" width="54.0" height="54.0" rx="7" fill="#ffffff" stroke="#dde1e5" stroke-width="1.2"/><rect x="228.0" y="183.0" width="54.0" height="54.0" rx="7" fill="#ffffff" stroke="#dde1e5" stroke-width="1.2"/><rect x="288.0" y="183.0" width="54.0" height="54.0" rx="7" fill="#ffffff" stroke="#dde1e5" stroke-width="1.2"/><rect x="348.0" y="183.0" width="54.0" height="54.0" rx="7" fill="#ffffff" stroke="#dde1e5" stroke-width="1.2"/><rect x="453.0" y="183.0" width="54.0" height="54.0" rx="7" fill="#ffffff" stroke="#dde1e5" stroke-width="1.2"/><rect x="513.0" y="183.0" width="54.0" height="54.0" rx="7" fill="#ffffff" stroke="#dde1e5" stroke-width="1.2"/><rect x="573.0" y="183.0" width="54.0" height="54.0" rx="7" fill="#ffffff" stroke="#dde1e5" stroke-width="1.2"/><rect x="633.0" y="183.0" width="54.0" height="54.0" rx="7" fill="#ffffff" stroke="#dde1e5" stroke-width="1.2"/><rect x="693.0" y="183.0" width="54.0" height="54.0" rx="7" fill="#ffffff" stroke="#dde1e5" stroke-width="1.2"/><rect x="753.0" y="183.0" width="54.0" height="54.0" rx="7" fill="#ffffff" stroke="#dde1e5" stroke-width="1.2"/><rect x="813.0" y="183.0" width="69.0" height="54.0" rx="7" fill="#ffffff" stroke="#dde1e5" stroke-width="1.2"/><rect x="33.0" y="243.0" width="69.0" height="54.0" rx="7" fill="#ffffff" stroke="#dde1e5" stroke-width="1.2"/><rect x="108.0" y="243.0" width="69.0" height="54.0" rx="7" fill="#ffffff" stroke="#dde1e5" stroke-width="1.2"/><rect x="183.0" y="243.0" width="84.0" height="54.0" rx="7" fill="#ffffff" stroke="#dde1e5" stroke-width="1.2"/><rect x="273.0" y="243.0" width="54.0" height="54.0" rx="7" fill="#ffffff" stroke="#dde1e5" stroke-width="1.2"/><rect x="333.0" y="243.0" width="54.0" height="54.0" rx="7" fill="#ffffff" stroke="#dde1e5" stroke-width="1.2"/><rect x="393.0" y="243.0" width="69.0" height="54.0" rx="7" fill="#ffffff" stroke="#dde1e5" stroke-width="1.2"/><rect x="468.0" y="243.0" width="54.0" height="54.0" rx="7" fill="#ffffff" stroke="#dde1e5" stroke-width="1.2"/><rect x="528.0" y="243.0" width="99.0" height="54.0" rx="7" fill="#ffffff" stroke="#dde1e5" stroke-width="1.2"/><rect x="633.0" y="243.0" width="54.0" height="54.0" rx="7" fill="#ffffff" stroke="#dde1e5" stroke-width="1.2"/><rect x="693.0" y="243.0" width="54.0" height="54.0" rx="7" fill="#ffffff" stroke="#dde1e5" stroke-width="1.2"/><rect x="753.0" y="243.0" width="54.0" height="54.0" rx="7" fill="#ffffff" stroke="#dde1e5" stroke-width="1.2"/><rect x="813.0" y="243.0" width="54.0" height="54.0" rx="7" fill="#ffffff" stroke="#dde1e5" stroke-width="1.2"/><circle cx="427.5" cy="150.0" r="18.0" fill="#d64545" stroke="#a02828" stroke-width="2"/><circle cx="427.5" cy="150.0" r="9.9" fill="none" stroke="#e88f8f" stroke-width="1.5" stroke-dasharray="2,3"/></g><text x="20" y="428" font-size="11" fill="#495057">最下段は各キーが小さいため、スペースバー用スタビライザーは使用しません。</text><text x="20" y="454" font-size="13.5" font-weight="700" fill="#212529">3-Split Space に変更する場合 … 2U スタビを2箇所追加（同梱の予備を使用）</text><g transform="translate(34,478)"><rect x="-14" y="-14" width="928.0" height="328" rx="12" fill="#f1f3f5" stroke="#dee2e6" stroke-width="1.5"/><rect x="48.0" y="3.0" width="54.0" height="54.0" rx="7" fill="#ffffff" stroke="#dde1e5" stroke-width="1.2"/><rect x="108.0" y="3.0" width="54.0" height="54.0" rx="7" fill="#ffffff" stroke="#dde1e5" stroke-width="1.2"/><rect x="168.0" y="3.0" width="54.0" height="54.0" rx="7" fill="#ffffff" stroke="#dde1e5" stroke-width="1.2"/><rect x="228.0" y="3.0" width="54.0" height="54.0" rx="7" fill="#ffffff" stroke="#dde1e5" stroke-width="1.2"/><rect x="288.0" y="3.0" width="54.0" height="54.0" rx="7" fill="#ffffff" stroke="#dde1e5" stroke-width="1.2"/><rect x="348.0" y="3.0" width="54.0" height="54.0" rx="7" fill="#ffffff" stroke="#dde1e5" stroke-width="1.2"/><rect x="453.0" y="3.0" width="54.0" height="54.0" rx="7" fill="#ffffff" stroke="#dde1e5" stroke-width="1.2"/><rect x="513.0" y="3.0" width="54.0" height="54.0" rx="7" fill="#ffffff" stroke="#dde1e5" stroke-width="1.2"/><rect x="573.0" y="3.0" width="54.0" height="54.0" rx="7" fill="#ffffff" stroke="#dde1e5" stroke-width="1.2"/><rect x="633.0" y="3.0" width="54.0" height="54.0" rx="7" fill="#ffffff" stroke="#dde1e5" stroke-width="1.2"/><rect x="693.0" y="3.0" width="54.0" height="54.0" rx="7" fill="#ffffff" stroke="#dde1e5" stroke-width="1.2"/><rect x="753.0" y="3.0" width="114.0" height="54.0" rx="7" fill="#ffd8a8" stroke="#cc7a29" stroke-width="2"/><text x="810.0" y="34.0" font-size="10.5" fill="#8a5416" font-weight="700" text-anchor="middle">2U スタビ</text><circle cx="774.0" cy="30.0" r="3.5" fill="#cc7a29"/><circle cx="846.0" cy="30.0" r="3.5" fill="#cc7a29"/><rect x="12.0" y="63.0" width="84.0" height="54.0" rx="7" fill="#ffffff" stroke="#dde1e5" stroke-width="1.2"/><rect x="108.0" y="63.0" width="54.0" height="54.0" rx="7" fill="#ffffff" stroke="#dde1e5" stroke-width="1.2"/><rect x="168.0" y="63.0" width="54.0" height="54.0" rx="7" fill="#ffffff" stroke="#dde1e5" stroke-width="1.2"/><rect x="228.0" y="63.0" width="54.0" height="54.0" rx="7" fill="#ffffff" stroke="#dde1e5" stroke-width="1.2"/><rect x="288.0" y="63.0" width="54.0" height="54.0" rx="7" fill="#ffffff" stroke="#dde1e5" stroke-width="1.2"/><rect x="348.0" y="63.0" width="54.0" height="54.0" rx="7" fill="#ffffff" stroke="#dde1e5" stroke-width="1.2"/><rect x="453.0" y="63.0" width="54.0" height="54.0" rx="7" fill="#ffffff" stroke="#dde1e5" stroke-width="1.2"/><rect x="513.0" y="63.0" width="54.0" height="54.0" rx="7" fill="#ffffff" stroke="#dde1e5" stroke-width="1.2"/><rect x="573.0" y="63.0" width="54.0" height="54.0" rx="7" fill="#ffffff" stroke="#dde1e5" stroke-width="1.2"/><rect x="633.0" y="63.0" width="54.0" height="54.0" rx="7" fill="#ffffff" stroke="#dde1e5" stroke-width="1.2"/><rect x="693.0" y="63.0" width="54.0" height="54.0" rx="7" fill="#ffffff" stroke="#dde1e5" stroke-width="1.2"/><rect x="753.0" y="63.0" width="54.0" height="54.0" rx="7" fill="#ffffff" stroke="#dde1e5" stroke-width="1.2"/><rect x="813.0" y="63.0" width="84.0" height="54.0" rx="7" fill="#ffffff" stroke="#dde1e5" stroke-width="1.2"/><rect x="3.0" y="123.0" width="99.0" height="54.0" rx="7" fill="#ffffff" stroke="#dde1e5" stroke-width="1.2"/><rect x="108.0" y="123.0" width="54.0" height="54.0" rx="7" fill="#ffffff" stroke="#dde1e5" stroke-width="1.2"/><rect x="168.0" y="123.0" width="54.0" height="54.0" rx="7" fill="#ffffff" stroke="#dde1e5" stroke-width="1.2"/><rect x="228.0" y="123.0" width="54.0" height="54.0" rx="7" fill="#ffffff" stroke="#dde1e5" stroke-width="1.2"/><rect x="288.0" y="123.0" width="54.0" height="54.0" rx="7" fill="#ffffff" stroke="#dde1e5" stroke-width="1.2"/><rect x="348.0" y="123.0" width="54.0" height="54.0" rx="7" fill="#ffffff" stroke="#dde1e5" stroke-width="1.2"/><rect x="453.0" y="123.0" width="54.0" height="54.0" rx="7" fill="#ffffff" stroke="#dde1e5" stroke-width="1.2"/><rect x="513.0" y="123.0" width="54.0" height="54.0" rx="7" fill="#ffffff" stroke="#dde1e5" stroke-width="1.2"/><rect x="573.0" y="123.0" width="54.0" height="54.0" rx="7" fill="#ffffff" stroke="#dde1e5" stroke-width="1.2"/><rect x="633.0" y="123.0" width="54.0" height="54.0" rx="7" fill="#ffffff" stroke="#dde1e5" stroke-width="1.2"/><rect x="693.0" y="123.0" width="54.0" height="54.0" rx="7" fill="#ffffff" stroke="#dde1e5" stroke-width="1.2"/><rect x="753.0" y="123.0" width="129.0" height="54.0" rx="7" fill="#ffd8a8" stroke="#cc7a29" stroke-width="2"/><text x="817.5" y="154.0" font-size="10.5" fill="#8a5416" font-weight="700" text-anchor="middle">2U スタビ</text><circle cx="781.5" cy="150.0" r="3.5" fill="#cc7a29"/><circle cx="853.5" cy="150.0" r="3.5" fill="#cc7a29"/><rect x="3.0" y="183.0" width="99.0" height="54.0" rx="7" fill="#ffffff" stroke="#dde1e5" stroke-width="1.2"/><rect x="108.0" y="183.0" width="54.0" height="54.0" rx="7" fill="#ffffff" stroke="#dde1e5" stroke-width="1.2"/><rect x="168.0" y="183.0" width="54.0" height="54.0" rx="7" fill="#ffffff" stroke="#dde1e5" stroke-width="1.2"/><rect x="228.0" y="183.0" width="54.0" height="54.0" rx="7" fill="#ffffff" stroke="#dde1e5" stroke-width="1.2"/><rect x="288.0" y="183.0" width="54.0" height="54.0" rx="7" fill="#ffffff" stroke="#dde1e5" stroke-width="1.2"/><rect x="348.0" y="183.0" width="54.0" height="54.0" rx="7" fill="#ffffff" stroke="#dde1e5" stroke-width="1.2"/><rect x="453.0" y="183.0" width="54.0" height="54.0" rx="7" fill="#ffffff" stroke="#dde1e5" stroke-width="1.2"/><rect x="513.0" y="183.0" width="54.0" height="54.0" rx="7" fill="#ffffff" stroke="#dde1e5" stroke-width="1.2"/><rect x="573.0" y="183.0" width="54.0" height="54.0" rx="7" fill="#ffffff" stroke="#dde1e5" stroke-width="1.2"/><rect x="633.0" y="183.0" width="54.0" height="54.0" rx="7" fill="#ffffff" stroke="#dde1e5" stroke-width="1.2"/><rect x="693.0" y="183.0" width="54.0" height="54.0" rx="7" fill="#ffffff" stroke="#dde1e5" stroke-width="1.2"/><rect x="753.0" y="183.0" width="54.0" height="54.0" rx="7" fill="#ffffff" stroke="#dde1e5" stroke-width="1.2"/><rect x="813.0" y="183.0" width="69.0" height="54.0" rx="7" fill="#ffffff" stroke="#dde1e5" stroke-width="1.2"/><rect x="33.0" y="243.0" width="69.0" height="54.0" rx="7" fill="#ffffff" stroke="#dde1e5" stroke-width="1.2"/><rect x="108.0" y="243.0" width="69.0" height="54.0" rx="7" fill="#ffffff" stroke="#dde1e5" stroke-width="1.2"/><rect x="183.0" y="243.0" width="69.0" height="54.0" rx="7" fill="#ffffff" stroke="#dde1e5" stroke-width="1.2"/><rect x="258.0" y="243.0" width="129.0" height="54.0" rx="7" fill="#ffd8a8" stroke="#cc7a29" stroke-width="2"/><text x="322.5" y="274.0" font-size="10.5" fill="#8a5416" font-weight="700" text-anchor="middle">2U 追加</text><circle cx="286.5" cy="270.0" r="3.5" fill="#cc7a29"/><circle cx="358.5" cy="270.0" r="3.5" fill="#cc7a29"/><rect x="393.0" y="243.0" width="69.0" height="54.0" rx="7" fill="#ffffff" stroke="#dde1e5" stroke-width="1.2"/><rect x="468.0" y="243.0" width="159.0" height="54.0" rx="7" fill="#ffd8a8" stroke="#cc7a29" stroke-width="2"/><text x="547.5" y="274.0" font-size="10.5" fill="#8a5416" font-weight="700" text-anchor="middle">2U 追加</text><circle cx="511.5" cy="270.0" r="3.5" fill="#cc7a29"/><circle cx="583.5" cy="270.0" r="3.5" fill="#cc7a29"/><rect x="633.0" y="243.0" width="54.0" height="54.0" rx="7" fill="#ffffff" stroke="#dde1e5" stroke-width="1.2"/><rect x="693.0" y="243.0" width="54.0" height="54.0" rx="7" fill="#ffffff" stroke="#dde1e5" stroke-width="1.2"/><rect x="753.0" y="243.0" width="54.0" height="54.0" rx="7" fill="#ffffff" stroke="#dde1e5" stroke-width="1.2"/><rect x="813.0" y="243.0" width="54.0" height="54.0" rx="7" fill="#ffffff" stroke="#dde1e5" stroke-width="1.2"/><circle cx="427.5" cy="150.0" r="18.0" fill="#d64545" stroke="#a02828" stroke-width="2"/><circle cx="427.5" cy="150.0" r="9.9" fill="none" stroke="#e88f8f" stroke-width="1.5" stroke-dasharray="2,3"/></g><text x="20" y="814" font-size="11" fill="#495057">6.25U Space に変更する場合は 6.25U 用スタビライザーが別途必要です（キットには含まれません）。</text></svg>