<svg xmlns="http://www.w3.org/2000/svg" width="760" height="330" viewBox="0 0 760 330" font-family="'Noto Sans CJK JP','Noto Sans JP','Hiragino Sans','Yu Gothic UI',sans-serif"><defs><marker id="arr" markerWidth="7" markerHeight="7" refX="5" refY="3.5" orient="auto"><path d="M0,0 L7,3.5 L0,7 z" fill="#868e96"/></marker><!-- スイッチ本体は tools/keydiagram/parts/mx-switch.svg のマスターから複製（手で編集せず sync_parts.py を使う）。部品は 6px=1mm、ここでは scale(1.3333) で 8px=1mm 相当に拡大。 -->
<!-- parts:mx-switch-front:begin -->
<g id="mx-switch-front"><g transform="translate(-103.2,-99)"><path d="M115.2 120.6 L184.8 120.6 L192 126 L192 152.4 L196.8 152.4 L196.8 160.2 L192 160.2 L192 190.2 L108 190.2 L108 160.2 L103.2 160.2 L103.2 152.4 L108 152.4 L108 126 Z" fill="#e9ecef" stroke="#b4bbc2" stroke-width="1.1" stroke-linejoin="round"/><path d="M192 160.2 L195.5 172 L192 172 Z" fill="#e3e7ea" stroke="#b4bbc2" stroke-width="0.9" stroke-linejoin="round"/><path d="M108 160.2 L104.5 172 L108 172 Z" fill="#e3e7ea" stroke="#b4bbc2" stroke-width="0.9" stroke-linejoin="round"/><rect x="133.5" y="99" width="33" height="21.6" rx="2" fill="#ced4da" stroke="#b4bbc2" stroke-width="1.1"/><line x1="150" y1="101" x2="150" y2="118" stroke="#adb5bd" stroke-width="0.8"/><rect x="138" y="190.2" width="24" height="19.8" rx="3" fill="#d3d8dc" stroke="#b4bbc2" stroke-width="0.9"/><rect x="114.4" y="190.2" width="10.2" height="17" rx="2" fill="#e3e7ea" stroke="#b4bbc2" stroke-width="0.9"/><rect x="175.4" y="190.2" width="10.2" height="17" rx="2" fill="#e3e7ea" stroke="#b4bbc2" stroke-width="0.9"/></g></g>
<!-- parts:mx-switch-front:end -->
</defs><rect width="760" height="330" fill="#ffffff"/><text x="20" y="30" font-size="17" fill="#212529" text-anchor="start" font-weight="700">取り付け前のピン確認（スイッチを正面から見る）</text><!-- 良い例: ピンがまっすぐ（本体中心 x=155、ピンは実物どおり左右非対称） --><rect x="122.5" y="165.6" width="4" height="26.4" fill="#8a5416"/><rect x="173.3" y="165.6" width="4" height="26.4" fill="#8a5416"/><use href="#mx-switch-front" transform="translate(92.6,44) scale(1.3333)"/><text x="155" y="240" font-size="13" fill="#2f8f45" text-anchor="middle" font-weight="700">○ ピンがまっすぐ</text><!-- 悪い例: 片方のピンが曲がっている（本体中心 x=515） --><rect x="482.5" y="165.6" width="4" height="26.4" fill="#8a5416"/><path d="M 533.3 165.6 l 4 0 l 3 14 l 21 18 l -7 7 l -21 -19 z" fill="#b02a37"/><use href="#mx-switch-front" transform="translate(452.6,44) scale(1.3333)"/><text x="515" y="240" font-size="13" fill="#b02a37" text-anchor="middle" font-weight="700">× ピンが曲がっている</text><text x="515" y="262" font-size="10.5" fill="#495057" text-anchor="middle">→ 精密ピンセット等でまっすぐに直してから取り付け</text><text x="20" y="304" font-size="11" fill="#495057" text-anchor="start">曲がったまま差し込むとピンがソケットに入らず、キーが反応しない原因になります。</text></svg>
