<svg xmlns="http://www.w3.org/2000/svg" width="680" height="530" viewBox="0 0 680 530" role="img">
<title>Cherry MX switch orthographic views</title>
<desc>Front, side, top, bottom pin layout, and plate-mount section of a Cherry MX keyboard switch with dimensions in mm.</desc>
<style>
  .t{font-family:sans-serif;font-size:14px;fill:#2C2C2A}
  .ts{font-family:sans-serif;font-size:12px;fill:#5F5E5A}
  .th{font-family:sans-serif;font-size:14px;font-weight:500;fill:#2C2C2A}
  .body{fill:#FFFFFF;stroke:#2C2C2A;stroke-width:1}
  .body-thin{fill:#FFFFFF;stroke:#2C2C2A;stroke-width:.8}
  .outline{fill:none;stroke:#2C2C2A;stroke-width:.8}
  .dim{stroke:#888780;stroke-width:.5;fill:none}
  .leader{stroke:#888780;stroke-width:.5;stroke-dasharray:3 3;fill:none}
  .hidden{fill:none;stroke:#888780;stroke-width:.5;stroke-dasharray:3 3}
  .stem{fill:#EEEDFE;stroke:#534AB7;stroke-width:.8}
  .pin{fill:#FAEEDA;stroke:#854F0B;stroke-width:.5}
  .plate{fill:#F1EFE8;stroke:#5F5E5A;stroke-width:.5}
</style>
<defs><marker id="arrow" viewBox="0 0 10 10" refX="8" refY="5" markerWidth="6" markerHeight="6" orient="auto-start-reverse"><path d="M2 1L8 5L2 9" fill="none" stroke="context-stroke" stroke-width="1.5" stroke-linecap="round" stroke-linejoin="round"/></marker></defs>

<text class="th" x="150" y="70" text-anchor="middle">Front view</text>
<text class="th" x="350" y="70" text-anchor="middle">Side view</text>
<text class="th" x="555" y="70" text-anchor="middle">Top view</text>

<path class="body" d="M115.2 120.6 L184.8 120.6 L192 126 L192 152.4 L196.8 152.4 L196.8 160.2 L192 160.2 L192 190.2 L108 190.2 L108 160.2 L103.2 160.2 L103.2 152.4 L108 152.4 L108 126 Z"/>
<path class="body-thin" d="M192 160.2 L195.5 172 L192 172 Z"/>
<path class="body-thin" d="M108 160.2 L104.5 172 L108 172 Z"/>
<rect class="stem" x="133.5" y="99" width="33" height="21.6" rx="2"/>
<line x1="150" y1="101" x2="150" y2="118" stroke="#888780" stroke-width=".5"/>
<rect class="body-thin" x="138" y="190.2" width="24" height="19.8" rx="3"/>
<rect class="body-thin" x="114.4" y="190.2" width="10.2" height="17" rx="2"/>
<rect class="body-thin" x="175.4" y="190.2" width="10.2" height="17" rx="2"/>
<rect class="pin" x="125.6" y="190.2" width="3" height="19.8" rx="1"/>
<rect class="pin" x="163.7" y="190.2" width="3" height="19.8" rx="1"/>
<line class="dim" x1="88" y1="99" x2="88" y2="120.6" marker-start="url(#arrow)" marker-end="url(#arrow)"/>
<line class="dim" x1="88" y1="120.6" x2="88" y2="190.2" marker-start="url(#arrow)" marker-end="url(#arrow)"/>
<line class="dim" x1="88" y1="190.2" x2="88" y2="210" marker-start="url(#arrow)" marker-end="url(#arrow)"/>
<line class="leader" x1="88" y1="99" x2="133" y2="99"/>
<line class="leader" x1="88" y1="120.6" x2="115" y2="120.6"/>
<line class="leader" x1="88" y1="190.2" x2="108" y2="190.2"/>
<line class="leader" x1="88" y1="210" x2="125" y2="210"/>
<text class="ts" x="84" y="113" text-anchor="end">3.6</text>
<text class="ts" x="84" y="159" text-anchor="end">11.6</text>
<text class="ts" x="84" y="204" text-anchor="end">3.3</text>
<line class="dim" x1="210" y1="99" x2="210" y2="210" marker-start="url(#arrow)" marker-end="url(#arrow)"/>
<line class="leader" x1="167" y1="99" x2="210" y2="99"/>
<line class="leader" x1="186" y1="210" x2="210" y2="210"/>
<text class="th" x="214" y="152">18.5</text>
<line class="dim" x1="103.2" y1="228" x2="196.8" y2="228" marker-start="url(#arrow)" marker-end="url(#arrow)"/>
<line class="leader" x1="103.2" y1="162" x2="103.2" y2="228"/>
<line class="leader" x1="196.8" y1="162" x2="196.8" y2="228"/>
<text class="th" x="150" y="244" text-anchor="middle">15.6</text>

<path class="body" d="M315.2 120.6 L384.8 120.6 L392 126 L392 152.4 L396.8 152.4 L396.8 160.2 L392 160.2 L392 190.2 L308 190.2 L308 160.2 L303.2 160.2 L303.2 152.4 L308 152.4 L308 126 Z"/>
<rect class="outline" x="308" y="132" width="11" height="15" rx="2"/>
<rect class="outline" x="381" y="132" width="11" height="15" rx="2"/>
<rect class="stem" x="333.5" y="99" width="33" height="21.6" rx="2"/>
<rect class="body-thin" x="338" y="190.2" width="24" height="19.8" rx="3"/>
<rect class="pin" x="363.7" y="190.2" width="3" height="19.8" rx="1"/>
<rect class="pin" x="379" y="190.2" width="3" height="19.8" rx="1"/>
<line class="dim" x1="412" y1="160.2" x2="412" y2="190.2" marker-start="url(#arrow)" marker-end="url(#arrow)"/>
<line class="leader" x1="393" y1="160.2" x2="412" y2="160.2"/>
<line class="leader" x1="393" y1="190.2" x2="412" y2="190.2"/>
<text class="ts" x="416" y="179">5.0</text>
<line class="dim" x1="303.2" y1="228" x2="396.8" y2="228" marker-start="url(#arrow)" marker-end="url(#arrow)"/>
<line class="leader" x1="303.2" y1="162" x2="303.2" y2="228"/>
<line class="leader" x1="396.8" y1="162" x2="396.8" y2="228"/>
<text class="th" x="350" y="244" text-anchor="middle">15.6</text>

<rect class="body" x="508.2" y="108.2" width="93.6" height="93.6" rx="4"/>
<rect class="hidden" x="520.2" y="120.2" width="69.6" height="69.6" rx="3"/>
<rect class="body-thin" x="538.5" y="138.5" width="33" height="33" rx="3"/>
<rect class="stem" x="542.7" y="150.9" width="24.6" height="8.2" rx="1"/>
<rect class="stem" x="550.9" y="142.7" width="8.2" height="24.6" rx="1"/>
<rect class="outline" x="546" y="112.5" width="18" height="9" rx="2"/>
<line class="dim" x1="508.2" y1="98" x2="601.8" y2="98" marker-start="url(#arrow)" marker-end="url(#arrow)"/>
<line class="leader" x1="508.2" y1="98" x2="508.2" y2="108.2"/>
<line class="leader" x1="601.8" y1="98" x2="601.8" y2="108.2"/>
<text class="th" x="555" y="90" text-anchor="middle">15.6</text>
<text class="ts" x="555" y="222" text-anchor="middle">15.6 x 15.6 square</text>
<text class="ts" x="555" y="244" text-anchor="middle">cross stem at center</text>

<text class="th" x="190" y="300" text-anchor="middle">Bottom view / pin layout</text>
<text class="th" x="510" y="300" text-anchor="middle">Plate mount section</text>

<rect class="hidden" x="123.2" y="353.2" width="93.6" height="93.6" rx="4"/>
<rect class="body" x="128" y="358" width="84" height="84" rx="3"/>
<circle class="outline" cx="170" cy="400" r="12"/>
<circle class="outline" cx="139.5" cy="400" r="5.1"/>
<circle class="outline" cx="200.5" cy="400" r="5.1"/>
<circle class="pin" cx="147.1" cy="384.8" r="4.5"/>
<circle class="pin" cx="185.2" cy="369.5" r="4.5"/>
<line class="dim" x1="139.5" y1="466" x2="200.5" y2="466" marker-start="url(#arrow)" marker-end="url(#arrow)"/>
<line class="leader" x1="139.5" y1="408" x2="139.5" y2="466"/>
<line class="leader" x1="200.5" y1="408" x2="200.5" y2="466"/>
<text class="ts" x="170" y="482" text-anchor="middle">10.16 (5.08 x 2)</text>
<circle class="outline" cx="252" cy="350" r="6"/>
<text class="ts" x="264" y="354">center boss D4.0</text>
<circle class="outline" cx="252" cy="380" r="3.5"/>
<text class="ts" x="264" y="384">locating D1.7</text>
<circle class="pin" cx="252" cy="410" r="3.5"/>
<text class="ts" x="264" y="414">contact D1.5</text>
<text class="ts" x="245" y="444">pin coords</text>
<text class="ts" x="245" y="462">(-3.81, 2.54)</text>
<text class="ts" x="245" y="478">(2.54, 5.08)</text>

<rect class="plate" x="420" y="400" width="43" height="9"/>
<rect class="plate" x="557" y="400" width="43" height="9"/>
<path class="body" d="M493.5 338.8 L526.5 338.8 L526.5 360.4 L552 360.4 L552 392.2 L556.8 392.2 L556.8 400 L552 400 L552 428.8 L468 428.8 L468 400 L463.2 400 L463.2 392.2 L468 392.2 L468 360.4 L493.5 360.4 Z"/>
<path class="body-thin" d="M552 409 L555.5 418 L552 418 Z"/>
<path class="body-thin" d="M468 409 L464.5 418 L468 418 Z"/>
<rect class="pin" x="487" y="428.8" width="3" height="19.8" rx="1"/>
<rect class="pin" x="530" y="428.8" width="3" height="19.8" rx="1"/>
<line class="dim" x1="612" y1="400" x2="612" y2="409" marker-start="url(#arrow)" marker-end="url(#arrow)"/>
<line class="leader" x1="600" y1="400" x2="612" y2="400"/>
<line class="leader" x1="600" y1="409" x2="612" y2="409"/>
<text class="th" x="618" y="409">1.5</text>
<line class="dim" x1="448" y1="400" x2="448" y2="428.8" marker-start="url(#arrow)" marker-end="url(#arrow)"/>
<line class="leader" x1="448" y1="428.8" x2="468" y2="428.8"/>
<text class="th" x="444" y="418" text-anchor="end">4.8</text>
<line class="dim" x1="424" y1="400" x2="424" y2="448.6" marker-start="url(#arrow)" marker-end="url(#arrow)"/>
<line class="leader" x1="424" y1="448.6" x2="487" y2="448.6"/>
<text class="ts" x="420" y="444" text-anchor="end">8.1</text>
<text class="ts" x="510" y="478" text-anchor="middle">plate cutout 14.0 sq / flange 15.6 rests on plate</text>
</svg>
